<svg version="1.1" id="Layer_1" xmlns="http://www.w3.org/2000/svg" xmlns:xlink="http://www.w3.org/1999/xlink" x="0px" y="0px"
	 width="100%" viewBox="0 0 357 405" enable-background="new 0 0 357 405" xml:space="preserve">
<path fill="#000000" opacity="1.000000" stroke="none" 
	d="
M230.000000,406.000000 
	C153.333344,406.000000 77.166695,406.000000 1.000031,406.000000 
	C1.000021,271.000031 1.000021,136.000076 1.000010,1.000085 
	C119.999939,1.000057 238.999878,1.000057 357.999878,1.000028 
	C357.999908,135.999924 357.999908,270.999847 357.999939,405.999878 
	C315.500000,406.000000 273.000000,406.000000 230.000000,406.000000 
M145.984436,210.959930 
	C145.656433,215.893631 145.095963,220.824951 145.045471,225.761490 
	C144.912201,238.793854 145.149078,251.830643 144.960846,264.861664 
	C144.743469,279.910370 146.556107,294.697815 150.018692,309.303925 
	C155.559967,332.678375 167.005768,352.714783 186.112717,367.344727 
	C210.429474,385.963776 237.984619,393.086609 268.475494,387.038940 
	C295.250671,381.728271 316.611664,368.039581 332.048309,345.552155 
	C348.124054,322.133759 353.416656,296.357971 348.049561,268.356415 
	C342.900879,241.494476 328.363708,220.809952 306.590393,204.968613 
	C288.312531,191.670456 267.879242,182.578751 246.158951,176.733566 
	C224.800201,170.985687 203.243378,165.929459 181.657776,161.085281 
	C168.414948,158.113373 155.743439,154.964355 150.719604,139.203537 
	C150.813232,136.365829 150.977951,133.528366 150.987595,130.690369 
	C151.021042,120.862473 151.129074,111.032318 150.971054,101.206848 
	C150.721375,85.682426 148.112701,70.656548 140.418610,56.909115 
	C127.770973,34.310925 108.040619,22.054766 82.638298,20.213057 
	C58.551334,18.466709 38.131042,27.257395 22.442398,46.061672 
	C7.359644,64.139732 2.498681,85.127533 7.535606,107.647202 
	C13.573343,134.641403 31.864479,151.476913 56.760883,162.091156 
	C74.361450,169.594910 92.949486,173.476120 111.382141,177.943298 
	C121.941376,180.502335 131.690765,184.414948 137.941910,193.668167 
	C141.306885,198.649155 143.298798,204.557755 145.984436,210.959930 
z"/>
<path fill="#F04A23" opacity="1.000000" stroke="none" 
	d="
M151.059662,139.914764 
	C155.743439,154.964355 168.414948,158.113373 181.657776,161.085281 
	C203.243378,165.929459 224.800201,170.985687 246.158951,176.733566 
	C267.879242,182.578751 288.312531,191.670456 306.590393,204.968613 
	C328.363708,220.809952 342.900879,241.494476 348.049561,268.356415 
	C353.416656,296.357971 348.124054,322.133759 332.048309,345.552155 
	C316.611664,368.039581 295.250671,381.728271 268.475494,387.038940 
	C237.984619,393.086609 210.429474,385.963776 186.112717,367.344727 
	C167.005768,352.714783 155.559967,332.678375 150.018692,309.303925 
	C146.556107,294.697815 144.743469,279.910370 144.960846,264.861664 
	C145.149078,251.830643 144.912201,238.793854 145.045471,225.761490 
	C145.095963,220.824951 145.656433,215.893631 145.974762,210.071381 
	C146.309998,206.052917 146.831894,202.930786 146.970245,199.791763 
	C147.715149,182.891663 148.283768,165.983337 149.121155,149.088165 
	C149.273941,146.005905 150.388870,142.971344 151.059662,139.914764 
z"/>
<path fill="#F58022" opacity="1.000000" stroke="none" 
	d="
M150.889633,139.559143 
	C150.388870,142.971344 149.273941,146.005905 149.121155,149.088165 
	C148.283768,165.983337 147.715149,182.891663 146.970245,199.791763 
	C146.831894,202.930786 146.309998,206.052917 145.937668,209.615326 
	C143.298798,204.557755 141.306885,198.649155 137.941910,193.668167 
	C131.690765,184.414948 121.941376,180.502335 111.382141,177.943298 
	C92.949486,173.476120 74.361450,169.594910 56.760883,162.091156 
	C31.864479,151.476913 13.573343,134.641403 7.535606,107.647202 
	C2.498681,85.127533 7.359644,64.139732 22.442398,46.061672 
	C38.131042,27.257395 58.551334,18.466709 82.638298,20.213057 
	C108.040619,22.054766 127.770973,34.310925 140.418610,56.909115 
	C148.112701,70.656548 150.721375,85.682426 150.971054,101.206848 
	C151.129074,111.032318 151.021042,120.862473 150.987595,130.690369 
	C150.977951,133.528366 150.813232,136.365829 150.889633,139.559143 
z"/>
</svg>