<svg version="1.1" id="Layer_1" xmlns="http://www.w3.org/2000/svg" xmlns:xlink="http://www.w3.org/1999/xlink" x="0px" y="0px"
	 width="100%" viewBox="0 0 492 428" enable-background="new 0 0 492 428" xml:space="preserve">
<path fill="#000000" opacity="1.000000" stroke="none" 
	d="
M329.000000,429.000000 
	C219.333328,429.000000 110.166664,429.000000 1.000000,429.000000 
	C1.000000,286.333344 1.000000,143.666672 1.000000,1.000000 
	C165.000000,1.000000 329.000000,1.000000 493.000000,1.000000 
	C493.000000,143.666672 493.000000,286.333344 493.000000,429.000000 
	C438.500000,429.000000 384.000000,429.000000 329.000000,429.000000 
M299.924164,179.019897 
	C316.925507,179.103683 333.876831,178.934799 350.748199,176.087402 
	C372.230835,172.461746 390.836517,164.084473 404.285431,146.226807 
	C417.406769,128.804047 422.343292,109.420578 419.099915,87.762070 
	C416.241486,68.673950 407.285583,53.293240 392.563477,41.037731 
	C374.439240,25.950130 353.618439,21.595411 330.656250,24.927885 
	C314.375336,27.290718 300.784576,34.885139 289.423370,46.274998 
	C280.162933,55.558758 272.886200,66.708229 269.240417,79.246048 
	C263.108032,100.335213 258.110443,121.767426 253.092239,143.162460 
	C250.203262,155.479477 244.519028,165.490265 233.352402,171.933029 
	C229.911865,173.918076 226.450745,175.867477 222.187363,177.624115 
	C220.408386,177.415710 218.625549,176.998917 216.851028,177.031708 
	C201.917496,177.307510 186.986816,177.841003 172.052689,177.952301 
	C155.355865,178.076767 138.929199,180.266068 122.730499,184.057617 
	C96.418350,190.216415 73.993111,203.095947 57.757984,224.964996 
	C39.828674,249.116135 32.535347,276.568207 37.181244,306.404877 
	C41.410290,333.564484 54.460072,356.390747 76.123802,373.344269 
	C101.530075,393.226593 130.492691,400.949982 162.641312,395.033661 
	C192.108536,389.610779 214.885345,374.067261 232.094101,349.768982 
	C247.027573,328.683380 255.913513,304.926483 261.780029,280.162750 
	C267.428925,256.317535 271.710632,232.124466 275.873230,207.960236 
	C278.326294,193.719635 284.158691,183.049667 299.924164,179.019897 
z"/>
<path fill="#0EB178" opacity="1.000000" stroke="none" 
	d="
M298.996429,179.168213 
	C284.158691,183.049667 278.326294,193.719635 275.873230,207.960236 
	C271.710632,232.124466 267.428925,256.317535 261.780029,280.162750 
	C255.913513,304.926483 247.027573,328.683380 232.094101,349.768982 
	C214.885345,374.067261 192.108536,389.610779 162.641312,395.033661 
	C130.492691,400.949982 101.530075,393.226593 76.123802,373.344269 
	C54.460072,356.390747 41.410290,333.564484 37.181244,306.404877 
	C32.535347,276.568207 39.828674,249.116135 57.757984,224.964996 
	C73.993111,203.095947 96.418350,190.216415 122.730499,184.057617 
	C138.929199,180.266068 155.355865,178.076767 172.052689,177.952301 
	C186.986816,177.841003 201.917496,177.307510 216.851028,177.031708 
	C218.625549,176.998917 220.408386,177.415710 223.057556,177.798065 
	C247.126266,178.314774 270.324829,178.655594 293.523285,179.004074 
	C295.348083,179.031464 297.172058,179.112244 298.996429,179.168213 
z"/>
<path fill="#FAD01E" opacity="1.000000" stroke="none" 
	d="
M299.460297,179.094055 
	C297.172058,179.112244 295.348083,179.031464 293.523285,179.004074 
	C270.324829,178.655594 247.126266,178.314774 223.463394,177.902603 
	C226.450745,175.867477 229.911865,173.918076 233.352402,171.933029 
	C244.519028,165.490265 250.203262,155.479477 253.092239,143.162460 
	C258.110443,121.767426 263.108032,100.335213 269.240417,79.246048 
	C272.886200,66.708229 280.162933,55.558758 289.423370,46.274998 
	C300.784576,34.885139 314.375336,27.290718 330.656250,24.927885 
	C353.618439,21.595411 374.439240,25.950130 392.563477,41.037731 
	C407.285583,53.293240 416.241486,68.673950 419.099915,87.762070 
	C422.343292,109.420578 417.406769,128.804047 404.285431,146.226807 
	C390.836517,164.084473 372.230835,172.461746 350.748199,176.087402 
	C333.876831,178.934799 316.925507,179.103683 299.460297,179.094055 
z"/>
</svg>